<svg width="112" height="70" viewBox="0 0 112 70" fill="none" xmlns="http://www.w3.org/2000/svg">
<path fill-rule="evenodd" clip-rule="evenodd" d="M21.1569 21.5348H0V42.6917H21.2501V64.0351H28.9859L29.3587 65.8991C29.7379 66.076 30.1428 66.2804 30.5808 66.5015C33.3729 67.9109 37.5117 70 44.9235 70C53.0507 70 58.8728 64.5943 60.7679 61.8914H71.8589V60.2138C67.292 59.6545 66.2668 55.8333 66.2668 51.546V35.0492C73.9058 34.8481 74.1738 35.3698 76.7345 40.3549L76.7345 40.3549C77.7355 42.3036 79.0868 44.9342 81.3656 48.4703C82.8349 50.7502 83.6837 52.4113 84.4008 53.8147C86.2305 57.3955 87.2032 59.2991 95.4391 65.5263C100.901 69.6561 108.332 69.7204 111.284 69.3476V67.6699C99.6837 67.6699 93.7695 56.2229 91.8317 52.4722C91.6209 52.0641 91.4571 51.7472 91.3382 51.546C88.9569 46.7833 86.5889 42.634 84.3915 38.7836C83.2347 36.7567 82.1253 34.8126 81.086 32.9055C92.4566 27.4998 94.8508 17.9931 89.9402 8.85931C85.4817 0.566559 70.5267 1.80046 65.2295 2.23753C64.6922 2.28186 64.2543 2.31799 63.9368 2.33515C60.4883 2.52156 58.9038 1.86914 58.065 1.49633C57.2262 1.12352 53.6845 -0.0881071 48.7448 0.0050952C34.4848 0.0982975 29.3587 9.88454 29.3587 17.4339C29.3587 24.9833 36.0693 32.1599 44.1779 37.1928C52.2865 42.2257 55.8282 46.979 56.3874 54.342C56.9466 61.705 51.9137 68.602 42.2206 66.7379C34.4662 65.2467 29.9801 56.2993 28.7063 52.012L29.9179 51.8256C34.8416 61.8487 39.6547 63.2736 41.8534 63.9245C41.9854 63.9636 42.108 63.9999 42.2206 64.0351V38.7772C31.0263 32.6712 28.2806 24.8204 27.6026 22.8819L27.5879 22.8397C26.9355 20.9756 24.7918 13.8922 29.3587 7.36807C33.0122 2.14875 38.8964 0.533241 41.3818 0.377904H21.1569V21.5348ZM48.838 30.2959C50.0496 31.0415 55.0825 34.2104 58.9038 38.4977C58.8417 33.6511 58.7174 22.0381 58.7174 14.3583C58.7174 5.13801 51.4093 3.65574 50.0882 3.38778C50.0338 3.37675 49.9896 3.36778 49.9564 3.36041C49.1176 3.174 41.8478 2.05556 38.7721 6.71569C35.3307 12.7835 36.5533 15.8593 38.592 20.9881L38.7721 21.4416C40.1675 24.9603 47.5877 29.5264 48.8284 30.29L48.838 30.2959ZM66.1736 32.4395V6.24966C66.1426 5.84579 66.3973 5.00075 67.6649 4.85163C69.2493 4.66522 77.1715 3.7332 80.8996 8.76612C84.6277 13.799 84.6277 17.8999 83.1364 24.2377C81.6452 30.5754 75.6803 32.8123 66.1736 32.4395Z" fill="white"/>
<path fill-rule="evenodd" clip-rule="evenodd" d="M21.1569 21.5348H0V42.6917H21.2501V64.0351H28.9859L29.3587 65.8991C29.7379 66.076 30.1428 66.2804 30.5808 66.5015C33.3729 67.9109 37.5117 70 44.9235 70C53.0507 70 58.8728 64.5943 60.7679 61.8914H71.8589V60.2138C67.292 59.6545 66.2668 55.8333 66.2668 51.546V35.0492C73.9058 34.8481 74.1738 35.3698 76.7345 40.3549L76.7345 40.3549C77.7355 42.3036 79.0868 44.9342 81.3656 48.4703C82.8349 50.7502 83.6837 52.4113 84.4008 53.8147C86.2305 57.3955 87.2032 59.2991 95.4391 65.5263C100.901 69.6561 108.332 69.7204 111.284 69.3476V67.6699C99.6837 67.6699 93.7695 56.2229 91.8317 52.4722C91.6209 52.0641 91.4571 51.7472 91.3382 51.546C88.9569 46.7833 86.5889 42.634 84.3915 38.7836C83.2347 36.7567 82.1253 34.8126 81.086 32.9055C92.4566 27.4998 94.8508 17.9931 89.9402 8.85931C85.4817 0.566559 70.5267 1.80046 65.2295 2.23753C64.6922 2.28186 64.2543 2.31799 63.9368 2.33515C60.4883 2.52156 58.9038 1.86914 58.065 1.49633C57.2262 1.12352 53.6845 -0.0881071 48.7448 0.0050952C34.4848 0.0982975 29.3587 9.88454 29.3587 17.4339C29.3587 24.9833 36.0693 32.1599 44.1779 37.1928C52.2865 42.2257 55.8282 46.979 56.3874 54.342C56.9466 61.705 51.9137 68.602 42.2206 66.7379C34.4662 65.2467 29.9801 56.2993 28.7063 52.012L29.9179 51.8256C34.8416 61.8487 39.6547 63.2736 41.8534 63.9245C41.9854 63.9636 42.108 63.9999 42.2206 64.0351V38.7772C31.0263 32.6712 28.2806 24.8204 27.6026 22.8819L27.5879 22.8397C26.9355 20.9756 24.7918 13.8922 29.3587 7.36807C33.0122 2.14875 38.8964 0.533241 41.3818 0.377904H21.1569V21.5348ZM48.838 30.2959C50.0496 31.0415 55.0825 34.2104 58.9038 38.4977C58.8417 33.6511 58.7174 22.0381 58.7174 14.3583C58.7174 5.13801 51.4093 3.65574 50.0882 3.38778C50.0338 3.37675 49.9896 3.36778 49.9564 3.36041C49.1176 3.174 41.8478 2.05556 38.7721 6.71569C35.3307 12.7835 36.5533 15.8593 38.592 20.9881L38.7721 21.4416C40.1675 24.9603 47.5877 29.5264 48.8284 30.29L48.838 30.2959ZM66.1736 32.4395V6.24966C66.1426 5.84579 66.3973 5.00075 67.6649 4.85163C69.2493 4.66522 77.1715 3.7332 80.8996 8.76612C84.6277 13.799 84.6277 17.8999 83.1364 24.2377C81.6452 30.5754 75.6803 32.8123 66.1736 32.4395Z" fill="url(#paint0_linear_1404_2256)"/>
<defs>
<linearGradient id="paint0_linear_1404_2256" x1="0" y1="0" x2="79.5467" y2="96.2336" gradientUnits="userSpaceOnUse">
<stop stop-color="#DAB171"/>
<stop offset="1" stop-color="#896126"/>
</linearGradient>
</defs>
</svg>
